<svg xmlns="http://www.w3.org/2000/svg" width="64" height="64" viewBox="0 0 64 64">
  <defs>
    <radialGradient id="g" cx="30%" cy="25%" r="80%">
      <stop offset="0" stop-color="#93c5fd" />
      <stop offset="0.55" stop-color="#60a5fa" />
      <stop offset="1" stop-color="#a78bfa" />
    </radialGradient>
    <filter id="s" x="-20%" y="-20%" width="140%" height="140%">
      <feDropShadow dx="0" dy="6" stdDeviation="6" flood-color="#1d4ed8" flood-opacity="0.25" />
    </filter>
  </defs>

  <g filter="url(#s)">
    <rect x="6" y="6" width="52" height="52" rx="18" fill="url(#g)" />
    <rect x="6" y="6" width="52" height="52" rx="18" fill="none" stroke="#ffffff" opacity="0.28" />
  </g>

  <g transform="translate(16 18)">
    <rect x="0" y="14" width="32" height="16" rx="8" fill="#ffffff" opacity="0.96" />
    <path d="M16 14h8a8 8 0 0 1 0 16h-8z" fill="#fde68a" opacity="0.96" />
    <path d="M9.5 22.4l3.2 3.4 7.8-8.6" fill="none" stroke="#16a34a" stroke-width="3" stroke-linecap="round" stroke-linejoin="round" />
  </g>

  <path d="M49 16l1.2 2.6 2.8 0.3-2.1 1.9 0.6 2.8-2.5-1.4-2.5 1.4 0.6-2.8-2.1-1.9 2.8-0.3z" fill="#ffffff" opacity="0.75" />
</svg>
